<svg xmlns="http://www.w3.org/2000/svg" width="1280" height="640" viewBox="0 0 1280 640">
    <defs>
        <linearGradient id="a" x1="0%" x2="100%" y1="37.5%" y2="62.5%">
            <stop offset="0%" stop-color="#2084E5"/>
            <stop offset="100%" stop-color="#0B64CC"/>
        </linearGradient>
    </defs>
    <g fill="none">
        <rect width="1280" height="640" fill="url(#a)"/>
        <text fill="#FFF" font-family="Roboto-Regular, Roboto" font-size="39" opacity=".87">
            <tspan x="234.728" y="436">Support for the Spine-based Kotlin and Java apps</tspan>
            <tspan x="501.548" y="494.2">running at Google Cloud</tspan>
        </text>
        <g fill="#FFF" fill-rule="evenodd" font-size="78" transform="translate(135 281)">
            <text font-family="RobotoMono-Bold, Roboto Mono" font-weight="bold">
                <tspan x="0" y="82">Spine</tspan>
            </text>
            <text font-family="RobotoMono-Light, Roboto Mono" font-weight="300">
                <tspan x="259" y="82">Google</tspan>
            </text>
            <text font-family="RobotoMono-Light, Roboto Mono" font-weight="300">
                <tspan x="564" y="82">Cloud</tspan>
            </text>
            <text font-family="RobotoMono-Light, Roboto Mono" font-weight="300">
                <tspan x="823" y="82">JVM</tspan>
            </text>
        </g>
        <path fill="#FFF"
              d="M582.877297,114 L590.278378,114 L590.278378,118.400971 L584.903784,118.400971 C583.009459,118.400971 581.511622,118.866459 580.322162,119.797433 C579.176757,120.686091 578.295676,121.870968 577.722973,123.26743 C577.15027,124.663892 576.753784,126.229622 576.533514,127.879986 C576.357297,129.572667 576.225135,131.138398 576.225135,132.661811 L576.225135,152.973985 C576.225135,156.105446 575.872703,158.89837 575.211892,161.395075 C574.507027,163.849462 573.67,166.007631 572.700811,167.827263 C571.687568,169.646896 570.542162,171.127992 569.264595,172.270552 C568.031081,173.455428 566.797568,174.217135 565.652162,174.640305 L565.652162,174.809573 C568.383514,175.613597 570.850541,177.814083 573.009189,181.368713 C575.167838,184.965661 576.225135,189.705168 576.225135,195.544918 L576.225135,217.380506 C576.225135,218.90392 576.357297,220.46965 576.533514,222.162331 C576.753784,223.812695 577.15027,225.336108 577.722973,226.774887 C578.295676,228.171349 579.176757,229.356226 580.322162,230.244884 C581.511622,231.175858 583.009459,231.641346 584.903784,231.641346 L590.278378,231.641346 L590.278378,236 L582.877297,236 C578.956486,236 575.872703,234.645855 573.625946,231.937565 C571.379189,229.186958 570.233784,225.420742 570.233784,220.554284 L570.233784,199.353451 C570.233784,192.794311 569.484865,187.631634 568.031081,183.950052 C566.533243,180.26847 563.537568,177.8564 559,176.756157 L559,172.989941 C561.334865,172.355186 563.273243,171.29726 564.771081,169.773847 C566.312973,168.292751 567.458378,166.473118 568.251351,164.31495 C569.044324,162.199098 569.617027,159.913978 569.925405,157.417274 C570.233784,154.962886 570.41,152.508498 570.41,150.096427 L570.41,129.614984 C570.41,124.875477 571.511351,121.109261 573.714054,118.27402 C575.916757,115.438779 578.956486,114 582.877297,114 Z M690.721622,114.169268 L697.990541,114.169268 C702.21973,114.169268 705.391622,115.608047 707.462162,118.485605 C709.576757,121.363163 710.634054,125.087062 710.634054,129.614984 L710.634054,150.096427 C710.634054,152.508498 710.81027,154.962886 711.118649,157.417274 C711.427027,159.913978 711.99973,162.199098 712.792703,164.31495 C713.585676,166.473118 714.687027,168.292751 716.184865,169.773847 C717.638649,171.29726 719.577027,172.355186 722,172.989941 L722,176.756157 C717.506486,177.8564 714.466757,180.26847 713.012973,183.950052 C711.515135,187.631634 710.81027,192.794311 710.81027,199.353451 L710.81027,220.554284 C710.81027,225.209157 709.664865,228.933056 707.418108,231.768297 C705.127297,234.603538 702.043514,236 698.166757,236 L690.721622,236 L690.721622,231.641346 L696.096216,231.641346 C697.990541,231.641346 699.532432,231.175858 700.677838,230.244884 C701.867297,229.356226 702.704324,228.171349 703.277027,226.774887 C703.893784,225.336108 704.29027,223.812695 704.466486,222.162331 C704.686757,220.46965 704.818919,218.90392 704.818919,217.380506 L704.818919,195.544918 C704.818919,189.705168 705.876216,184.965661 708.034865,181.368713 C710.193514,177.814083 712.660541,175.613597 715.391892,174.809573 L715.391892,174.640305 C714.114324,174.217135 712.880811,173.455428 711.691351,172.270552 C710.457838,171.127992 709.312432,169.646896 708.255135,167.827263 C707.197838,166.007631 706.360811,163.849462 705.744054,161.395075 C705.127297,158.89837 704.818919,156.105446 704.818919,152.973985 L704.818919,132.661811 C704.818919,131.138398 704.730811,129.572667 704.554595,127.879986 C704.422432,126.229622 704.07,124.663892 703.541351,123.26743 C703.012703,121.870968 702.131622,120.686091 700.942162,119.797433 C699.708649,118.866459 698.122703,118.400971 696.096216,118.400971 L690.721622,118.400971 L690.721622,114.169268 Z M681.742492,208.677083 C683.043679,208.677083 684.093023,209.777181 684.093023,211.141303 L684.093023,222.142284 C684.093023,223.462402 683.043679,224.5625 681.742492,224.5625 L601.152857,224.5625 C599.85167,224.5625 598.802326,223.462402 598.802326,222.142284 L598.802326,211.141303 C598.802326,209.777181 599.85167,208.677083 601.152857,208.677083 L681.742492,208.677083 Z M676.115402,213.972222 C674.644873,213.972222 673.431686,215.14892 673.431686,216.619792 C673.431686,218.090664 674.644873,219.267361 676.115402,219.267361 C677.585931,219.267361 678.762355,218.090664 678.762355,216.619792 C678.762355,215.14892 677.585931,213.972222 676.115402,213.972222 Z M681.742492,182.201389 C683.043679,182.201389 684.093023,183.301487 684.093023,184.665609 L684.093023,195.66659 C684.093023,197.030711 683.043679,198.086806 681.742492,198.086806 L601.152857,198.086806 C599.85167,198.086806 598.802326,197.030711 598.802326,195.66659 L598.802326,184.665609 C598.802326,183.301487 599.85167,182.201389 601.152857,182.201389 L681.742492,182.201389 Z M676.115402,187.496528 C674.644873,187.496528 673.431686,188.673225 673.431686,190.144097 C673.431686,191.614969 674.644873,192.791667 676.115402,192.791667 C677.585931,192.791667 678.762355,191.614969 678.762355,190.144097 C678.762355,188.673225 677.585931,187.496528 676.115402,187.496528 Z M681.742492,155.725694 C683.043679,155.725694 684.093023,156.825793 684.093023,158.14591 L684.093023,169.146891 C684.093023,170.511013 683.043679,171.611111 681.742492,171.611111 L601.152857,171.611111 C599.85167,171.611111 598.802326,170.511013 598.802326,169.146891 L598.802326,158.14591 C598.802326,156.825793 599.85167,155.725694 601.152857,155.725694 L681.742492,155.725694 Z M676.09702,161.020833 C674.612048,161.020833 673.431686,162.210321 673.431686,163.668403 C673.431686,165.126485 674.612048,166.315972 676.09702,166.315972 C677.543916,166.315972 678.762355,165.126485 678.762355,163.668403 C678.762355,162.210321 677.543916,161.020833 676.09702,161.020833 Z M681.742492,129.25 C683.043679,129.25 684.093023,130.350098 684.093023,131.670216 L684.093023,142.671197 C684.093023,144.035319 683.043679,145.135417 681.742492,145.135417 L601.152857,145.135417 C599.85167,145.135417 598.802326,144.035319 598.802326,142.671197 L598.802326,131.670216 C598.802326,130.350098 599.85167,129.25 601.152857,129.25 L681.742492,129.25 Z M676.09702,134.545139 C674.612048,134.545139 673.431686,135.726069 673.431686,137.211756 C673.431686,138.659348 674.612048,139.840278 676.09702,139.840278 C677.543916,139.840278 678.762355,138.659348 678.762355,137.211756 C678.762355,135.726069 677.543916,134.545139 676.09702,134.545139 Z"/>
    </g>
</svg>
